<svg xmlns="http://www.w3.org/2000/svg" xmlns:xlink="http://www.w3.org/1999/xlink" viewBox="0 0 1240.75 1006.4"><defs><style>.cls-1{fill:url(#radial-gradient);}.cls-2{fill:url(#radial-gradient-2);}.cls-3{fill:url(#radial-gradient-3);}.cls-4{fill:#fff;}.cls-5{fill:url(#radial-gradient-4);}.cls-6{fill:url(#radial-gradient-5);}.cls-7{fill:url(#radial-gradient-6);}.cls-8{fill:url(#radial-gradient-7);}.cls-9{fill:url(#radial-gradient-8);}.cls-10{fill:url(#radial-gradient-9);}.cls-11{fill:url(#radial-gradient-10);}.cls-12{fill:url(#radial-gradient-11);}</style><radialGradient id="radial-gradient" cx="349.73" cy="623.99" r="50.69" gradientTransform="matrix(1, 0, 0, -0.99, -6.25, 1399.37)" gradientUnits="userSpaceOnUse"><stop offset="0" stop-color="#499ad4"/><stop offset="0.65" stop-color="#2fc5f4"/><stop offset="1" stop-color="#41b9ea"/></radialGradient><radialGradient id="radial-gradient-2" cx="888.38" cy="613.73" r="43.77" xlink:href="#radial-gradient"/><radialGradient id="radial-gradient-3" cx="629.09" cy="1025.04" r="516.61" xlink:href="#radial-gradient"/><radialGradient id="radial-gradient-4" cx="619.96" cy="549.95" r="138.67" xlink:href="#radial-gradient"/><radialGradient id="radial-gradient-5" cx="622.36" cy="753.17" r="26.63" xlink:href="#radial-gradient"/><radialGradient id="radial-gradient-6" cx="536.19" cy="731.14" r="28.91" gradientTransform="matrix(1, 0, 0, -0.99, -6.25, 1399.38)" xlink:href="#radial-gradient"/><radialGradient id="radial-gradient-7" cx="472.83" cy="668.74" r="28.92" gradientTransform="matrix(1, 0, 0, -0.99, -6.23, 1399.38)" xlink:href="#radial-gradient"/><radialGradient id="radial-gradient-8" cx="449.49" cy="582.94" r="26.74" gradientTransform="matrix(1, 0.01, 0.01, -0.99, -13.48, 1393.71)" xlink:href="#radial-gradient"/><radialGradient id="radial-gradient-9" cx="790.36" cy="586.81" r="26.86" gradientTransform="matrix(1, 0, 0, -0.99, -6.25, 1399.38)" xlink:href="#radial-gradient"/><radialGradient id="radial-gradient-10" cx="765.11" cy="672.05" r="29.03" gradientTransform="matrix(1, 0, 0, -0.99, -6.24, 1399.37)" xlink:href="#radial-gradient"/><radialGradient id="radial-gradient-11" cx="700.41" cy="732.97" r="28.82" gradientTransform="matrix(1, 0, 0, -0.99, -6.21, 1399.38)" xlink:href="#radial-gradient"/></defs><title>Asset 7smarhub_logo</title><g id="Layer_2" data-name="Layer 2"><g id="Layer_1-2" data-name="Layer 1"><g id="Layer_1-2-2" data-name="Layer 1-2"><path class="cls-1" d="M365.61,846.07V711.42l-47,47A308.6,308.6,0,0,0,365.61,846.07Z"/><path class="cls-2" d="M857.61,846.82a309.58,309.58,0,0,0,42.08-73.7l-42.08-42Z"/><path class="cls-3" d="M1117.63,407.23c-72.42-4.55-134.82,50.38-139.39,122.68-.25,3.91-.28,7.8-.18,11.65l-70.65,8.85a6.19,6.19,0,0,1-6.52-3.89,309.74,309.74,0,0,0-76-112.91,6.17,6.17,0,0,1-.39-8.57l55.46-62.86a122.7,122.7,0,0,0,180.92-34,122.53,122.53,0,1,0-202.42,12.4l-68,59.22a6.19,6.19,0,0,1-7.46.51,308.3,308.3,0,0,0-100.94-43.46q-11.23-2.61-22.79-4.37h0q-9.63-1.49-19.48-2.37a6.16,6.16,0,0,1-5.61-5.71l-4.6-67.59c76.33-8.21,131.54-76.66,123.31-152.88S676.11-7.4,599.78.81,468.24,77.47,476.47,153.69A138.87,138.87,0,0,0,580.2,273.29c4.22,1.08,8.43,1.91,12.65,2.58l-4.34,68.57a6.2,6.2,0,0,1-5.61,5.77c-5.17.47-10.29,1.08-15.39,1.76Q556.1,353.59,545,356q-10.18,2.23-20.08,5.13-7.08,2.06-14,4.44a308.35,308.35,0,0,0-37.49,15.72,6.12,6.12,0,0,1-6.78-.89l-63.2-55A122.71,122.71,0,1,0,369,355.81,126.66,126.66,0,0,0,382,347l46.94,53.21a6.16,6.16,0,0,1-.54,8.71l-.45.36a310.33,310.33,0,0,0-97.73,119.92,6.19,6.19,0,0,1-6.75,3.54l-61.36-11.59c.37-4,.58-8.06.58-12.16,0-72.42-58.83-131.12-131.36-131.1S0,436.6,0,509,58.83,640.14,131.36,640.12a131.31,131.31,0,0,0,123-85.19L308,572.62a6.17,6.17,0,0,1,4,7.42c-1,3.84-1.93,7.68-2.8,11.57-1.61,7.39-3,14.88-4.06,22.47a310.81,310.81,0,0,0,9,130.34L543.28,515.61a83.44,83.44,0,0,1,117.84,0L857.61,711.78v.91l47.1,47q2.52-7.25,4.7-14.66a311.76,311.76,0,0,0,8.75-134.21q-.67-4.32-1.47-8.63a6.17,6.17,0,0,1,4.95-7.19h0l64.44-11.53c25.13,68,100.68,102.7,168.74,77.6a131.14,131.14,0,0,0-37.23-253.95Z"/><path class="cls-4" d="M94.9,569.75c0-2.63-.16-5.14,0-7.62s2-3.38,4.43-3.38h13.19v-11H82c-9.38,0-15.4-6-15.4-15.35V477.18c0-8.84,6.05-15,14.94-15H172.8c8.85,0,14.91,6,14.91,15v55.44c0,9-6.09,15.06-15.14,15.08s-18.59,0-27.91,0h-3v11H154c4.22,0,5.31,1.06,5.31,5.31v5.73ZM127.15,477H86c-4.37,0-5.31,1-5.31,5.45v44.9c0,4.43,1,5.39,5.42,5.41h82.08c4.43,0,5.31-1,5.31-5.43V482.44c0-4.39-1-5.42-5.44-5.42Z"/><path class="cls-4" d="M1040,546V533.57c0-2.35.62-3,2.94-3s4.34,0,6.51,0c1,0,1.55-.18,1.78-1.29a49,49,0,0,1,4.87-11.8,1.78,1.78,0,0,0-.26-2.49l-.15-.11c-1.58-1.47-3.1-3-4.61-4.58s-1.52-2.49,0-4q9.08-9.07,18.14-18.12c1.57-1.56,2.46-1.52,4.09,0s3.2,3.11,4.73,4.74a1.51,1.51,0,0,0,2.09.39l.14-.11a49.36,49.36,0,0,1,11.63-4.83c1.21-.32,1.77-.83,1.67-2.17-.13-2.21,0-4.46,0-6.69a2.21,2.21,0,0,1,1.84-2.52,2.36,2.36,0,0,1,.65,0h26.21c1.77,0,2.52.75,2.55,2.64v6.68a1.66,1.66,0,0,0,1.3,2l.12,0a50,50,0,0,1,12,5,1.46,1.46,0,0,0,2-.23l0-.07c1.58-1.66,3.21-3.25,4.85-4.86s2.46-1.52,3.95,0q9.11,9,18.15,18.11c1.54,1.53,1.51,2.49,0,4.1s-3,3.09-4.62,4.58a1.76,1.76,0,0,0-.35,2.44,51.29,51.29,0,0,1,4.88,11.79,1.57,1.57,0,0,0,1.75,1.38h6.9c1.89,0,2.6.73,2.62,2.6v26c0,1.94-.73,2.6-2.77,2.63s-4.46,0-6.67,0c-1,0-1.54.19-1.77,1.29a49.92,49.92,0,0,1-4.89,11.8,1.76,1.76,0,0,0,.25,2.48.91.91,0,0,0,.16.11c1.59,1.49,3.1,3.05,4.62,4.58s1.5,2.52,0,4q-9,9.07-18.13,18.11c-1.56,1.56-2.47,1.52-4.1,0s-3.18-3.13-4.72-4.74a1.42,1.42,0,0,0-2-.44l-.1.07a51.29,51.29,0,0,1-12.15,5,1.59,1.59,0,0,0-1.31,1.77v6.88a2.19,2.19,0,0,1-2.48,2.52h-26.2c-1.86,0-2.54-.76-2.57-2.65v-6.68a1.64,1.64,0,0,0-1.28-1.94l-.12,0a51.11,51.11,0,0,1-12-5,1.41,1.41,0,0,0-2,.18.39.39,0,0,0-.08.1c-1.54,1.63-3.14,3.16-4.73,4.74s-2.57,1.68-4.23,0q-9-9-18-18c-1.54-1.54-1.51-2.5,0-4.09s3-3.09,4.6-4.6a1.76,1.76,0,0,0,.35-2.44,51.29,51.29,0,0,1-4.88-11.79c-.32-1.17-.92-1.4-2-1.36h-6.5c-2.16,0-2.79-.67-2.81-2.78Zm133.88,0c0-3.09-.11-6.19,0-9.28.08-1.77-.54-2.12-2.11-2-2,.12-4,0-6,0a2.27,2.27,0,0,1-2.52-1.94,54.8,54.8,0,0,0-6.46-15.74,2.5,2.5,0,0,1,.46-3.52l0,0c1.47-1.41,2.87-2.9,4.35-4.31.73-.69.8-1.2,0-2q-6.87-6.8-13.67-13.66c-.72-.72-1.25-.77-2,0-1.5,1.47-3.11,2.83-4.6,4.32a2.77,2.77,0,0,1-3.83.44,49.94,49.94,0,0,0-15.23-6.19A2.71,2.71,0,0,1,1120,489h0V482.9c0-1.15-.41-1.49-1.52-1.49h-19.32c-1.19,0-1.51.48-1.47,1.56v6.31a2.48,2.48,0,0,1-2.16,2.76h0a53.22,53.22,0,0,0-15.57,6.38,2.52,2.52,0,0,1-3.54-.5c-1.38-1.41-2.85-2.75-4.18-4.22-.83-.89-1.38-.89-2.25,0q-6.65,6.76-13.41,13.38c-.92.89-.79,1.49,0,2.27,1.4,1.39,2.73,2.88,4.17,4.24a2.63,2.63,0,0,1,.51,3.66,53.84,53.84,0,0,0-6.39,15.54,2.52,2.52,0,0,1-2.8,2.14h-6.31c-1,0-1.47.18-1.47,1.31V556.1c0,1.06.39,1.41,1.42,1.4h6.5a2.39,2.39,0,0,1,2.67,2,54.31,54.31,0,0,0,6.47,15.72,2.43,2.43,0,0,1-.43,3.34c-1.4,1.38-2.76,2.85-4.21,4.18-.91.83-1.08,1.41,0,2.37q6.76,6.63,13.4,13.38c.8.8,1.37.85,2.15,0,1.47-1.5,3-2.92,4.51-4.4a2.48,2.48,0,0,1,3.37-.44,53.6,53.6,0,0,0,15.72,6.45,2.49,2.49,0,0,1,2.11,2.83v6.31c0,1,.26,1.42,1.36,1.42H1119c1.32,0,1.56-.55,1.55-1.68v-6.12a2.49,2.49,0,0,1,2.1-2.81,52.81,52.81,0,0,0,15.57-6.37,2.63,2.63,0,0,1,3.65.55c1.36,1.43,2.83,2.78,4.18,4.23.79.85,1.32.76,2.1,0,4.45-4.49,8.86-9,13.41-13.37,1-1,.81-1.57,0-2.41-1.42-1.37-2.75-2.86-4.16-4.24a2.59,2.59,0,0,1-.48-3.54,52.73,52.73,0,0,0,6.41-15.54,2.6,2.6,0,0,1,2.94-2.19H1172c1.42.09,2-.28,1.92-1.77-.11-3.13,0-6.28,0-9.44Z"/><path class="cls-4" d="M1153.87,546.14a44.63,44.63,0,1,1-44.59-44.59h0A44.74,44.74,0,0,1,1153.87,546.14ZM1117.08,557v.13l1.77.53a34.17,34.17,0,0,1,19,13.84c.94,1.42,1.37,1.26,2.32.09a39.49,39.49,0,0,0-.63-51.63,38.27,38.27,0,0,0-38-13.16c-29.77,5.66-42.5,41.29-23.41,64.7,1,1.22,1.33,1.1,2.14-.14a33.5,33.5,0,0,1,15.39-12.68c1.77-.7,3.54-1.23,5.31-1.87a19,19,0,1,1,21.93-30.33,19.44,19.44,0,0,1-5.79,30.52Z"/><path class="cls-4" d="M356.62,190.32a32.63,32.63,0,0,0-29.81-23.69c-1.08,0-1.63.26-1.61,1.41v8.08c0,1,.48,1.44,1.49,1.49A21.34,21.34,0,0,1,346.77,198c0,.92.44,1.26,1.31,1.24h8.23c1,0,1.46-.35,1.47-1.41A28.29,28.29,0,0,0,356.62,190.32Z"/><path class="cls-4" d="M332.18,199.22h5.63c.88,0,1.29-.3,1.26-1.26a14,14,0,0,0-12.22-12.48c-1.06-.09-1.65.19-1.65,1.36v11c0,1,.44,1.45,1.49,1.43C328.51,199.18,330.34,199.22,332.18,199.22Z"/><path class="cls-4" d="M349.51,248c0-1.45-.44-2-1.91-1.91-2.14.09-4.28,0-6.41,0-1.38,0-1.88-.41-1.77-1.77,0-4.17.14-8.35,0-12.5a34.65,34.65,0,0,0-7-20.43c-10.31-13.31-24.1-17.94-40.37-15.1a36.69,36.69,0,0,0-22.48,13.39,35,35,0,0,0-8.27,22.4v13.71l-.23.26c-2.64,0-5.31.11-7.93,0-1.43,0-2,.43-2,1.91v47.74a16.7,16.7,0,0,0,1,5.82,16.16,16.16,0,0,0,14.17,10h67.9a10.9,10.9,0,0,0,2.28-.12,15.79,15.79,0,0,0,13-15.92V281.9C349.48,270.64,349.46,259.3,349.51,248Zm-38.72,31a5.25,5.25,0,0,0-1.77,4.54v15.37c0,2.65-.82,4-3.69,3.87-3.31-.16-6.64-.09-9.95,0-2.2,0-3.05-1-3-3.13v-8.33h0c0-1.48-.09-3,0-4.49a11.19,11.19,0,0,0-3.22-9.44c-4.39-4.6-4.37-12-.82-17.26A14.74,14.74,0,0,1,305,254.17a14.16,14.16,0,0,1,10.29,13.94A13.28,13.28,0,0,1,310.79,279Zm15.93-32.86h-52.5c-2,0-2.06,0-2-2.05,0-4.51-.16-9,.11-13.54a23.9,23.9,0,0,1,8.48-16.8,28.1,28.1,0,0,1,24.65-6.83A26.69,26.69,0,0,1,327,224.34a23.63,23.63,0,0,1,1.44,7.89v12.18c.07,1.36-.39,1.7-1.72,1.68Z"/><polygon class="cls-4" points="958.48 265.47 960.59 240.21 940.35 274.31 953.84 274.31 952.56 298.31 971.97 266.73 958.48 265.47"/><path class="cls-4" d="M956.16,307A37.7,37.7,0,1,1,994,269.26,37.73,37.73,0,0,1,956.16,307Zm0-70.73a33,33,0,1,0,33.06,33h0A33.09,33.09,0,0,0,956.16,236.23Z"/><path class="cls-4" d="M956.55,199.71h.79a3.46,3.46,0,0,1,3.46,3.45v17.29a3.45,3.45,0,0,1-3.46,3.45h-.79a3.45,3.45,0,0,1-3.46-3.45V203.16A3.46,3.46,0,0,1,956.55,199.71Z"/><path class="cls-4" d="M921.43,209l.69-.4a3.46,3.46,0,0,1,4.72,1.24l8.72,14.94a3.46,3.46,0,0,1-1.24,4.72l-.69.4a3.46,3.46,0,0,1-4.72-1.24l-8.73-14.94A3.45,3.45,0,0,1,921.43,209Z"/><path class="cls-4" d="M895.78,234.67l.39-.69a3.44,3.44,0,0,1,4.7-1.3l15.07,8.52a3.45,3.45,0,0,1,1.31,4.7l-.39.69a3.46,3.46,0,0,1-4.71,1.3l-15.07-8.52A3.44,3.44,0,0,1,895.78,234.67Z"/><rect class="cls-4" x="886.48" y="265.39" width="24.23" height="7.69" rx="3.45" transform="translate(-3.31 11.3) rotate(-0.72)"/><path class="cls-4" d="M897,299.2l14.85-8.9a3.45,3.45,0,0,1,4.74,1.19l.41.68a3.45,3.45,0,0,1-1.18,4.73l-14.85,8.9a3.46,3.46,0,0,1-4.74-1.18l-.41-.69A3.45,3.45,0,0,1,897,299.2Z"/><path class="cls-4" d="M920.15,324.91l8.34-15.16a3.45,3.45,0,0,1,4.69-1.36l.7.38a3.44,3.44,0,0,1,1.36,4.68l-8.34,15.16a3.45,3.45,0,0,1-4.69,1.36l-.69-.38A3.44,3.44,0,0,1,920.15,324.91Z"/><path class="cls-4" d="M956.11,314.58l.8,0a3.46,3.46,0,0,1,3.54,3.36l.43,17.29a3.44,3.44,0,0,1-3.36,3.53l-.8,0a3.45,3.45,0,0,1-3.54-3.36l-.43-17.28A3.45,3.45,0,0,1,956.11,314.58Z"/><path class="cls-4" d="M979,308.47l.67-.42a3.47,3.47,0,0,1,4.76,1.12l9.09,14.72a3.43,3.43,0,0,1-1.12,4.74l-.68.42a3.45,3.45,0,0,1-4.75-1.12l-9.1-14.72A3.44,3.44,0,0,1,979,308.47Z"/><path class="cls-4" d="M995.67,291.66l.38-.71a3.46,3.46,0,0,1,4.67-1.42l15.28,8.14a3.44,3.44,0,0,1,1.42,4.67l-.37.7a3.46,3.46,0,0,1-4.67,1.42l-15.28-8.14A3.44,3.44,0,0,1,995.67,291.66Z"/><path class="cls-4" d="M1004.88,264.38l17.31-.66a3.46,3.46,0,0,1,3.58,3.32l0,.79a3.46,3.46,0,0,1-3.32,3.58l-17.31.65a3.45,3.45,0,0,1-3.58-3.31l0-.8A3.44,3.44,0,0,1,1004.88,264.38Z"/><path class="cls-4" d="M995.8,240.57l14.62-9.26a3.44,3.44,0,0,1,4.76,1.06l.43.67a3.45,3.45,0,0,1-1.06,4.76l-14.62,9.27a3.47,3.47,0,0,1-4.77-1.06l-.43-.68A3.45,3.45,0,0,1,995.8,240.57Z"/><path class="cls-4" d="M975.94,224.56l8-15.36a3.45,3.45,0,0,1,4.65-1.47l.71.36a3.44,3.44,0,0,1,1.48,4.65l-8,15.36a3.47,3.47,0,0,1-4.66,1.48l-.71-.37A3.45,3.45,0,0,1,975.94,224.56Z"/><path class="cls-5" d="M730.2,794.39A86.61,86.61,0,0,0,717,759.57a136.7,136.7,0,0,0-66.62-54.05,109.35,109.35,0,0,0-45.69-6.94,137.2,137.2,0,0,0-42.3,9.39,111.28,111.28,0,0,0-33.24,20.69c-18.54,16.8-31,39.91-36,66.86a115.1,115.1,0,0,0,.44,43,146.31,146.31,0,0,0,11.78,35A166,166,0,0,0,522.76,902a4.82,4.82,0,0,0,6.75.9l.24-.2,3.24-2.82a4.79,4.79,0,0,0,.68-6.51c-8.86-11.62-35-50.73-26.76-95.29,9.24-50,46.17-82,98.78-85.62,25.48-1.77,52,7.6,74.57,26.29,20.08,16.61,33.93,38.55,36.12,57.26,4.86,41.08-11.9,75.8-24.56,95.48a4.78,4.78,0,0,1-4.05,2.21H677a4.8,4.8,0,0,1-4.81-4.77l-.5-74.65a4.72,4.72,0,0,0-1.86-3.75l-51.73-40.3a4.84,4.84,0,0,0-5.31-.36l-59,34.45a4.84,4.84,0,0,0-2.37,4.1l-.85,95.1a4.81,4.81,0,0,0,4.78,4.84h74.21a4.79,4.79,0,0,0,4.8-4.79v-4.28a4.8,4.8,0,0,0-4.78-4.81H569.31a4.81,4.81,0,0,1-4.81-4.81v0l.65-73.17a4.76,4.76,0,0,1,2.38-4.12l44-25.71a4.82,4.82,0,0,1,5.31.35l39,30.38a4.82,4.82,0,0,1,1.86,3.75l.49,75.82-.28,27.07a4.78,4.78,0,0,1-4.8,4.74H575.8c-12.14.53-18,5.78-20.88,10.1a19.16,19.16,0,0,0-3.14,9.55v.24a20.2,20.2,0,0,0,3.81,15c5.61,7.34,15,8.72,16,8.84h75.26a4.61,4.61,0,0,1,1.11.13,11.31,11.31,0,0,1,6,4.26,10.29,10.29,0,0,1-1.86,14.46,1.33,1.33,0,0,1-.19.14l-.23.16a4.77,4.77,0,0,1-2.78.89H555.09a4.81,4.81,0,0,0-4.81,4.81v4.26a4.81,4.81,0,0,0,4.81,4.81h97.54a4.72,4.72,0,0,0,2-.43l.42-.19a33.35,33.35,0,0,0,8.06-5.45,22.94,22.94,0,0,0,8.14-18.07h0a5,5,0,0,0-.14-1.22h0a34.93,34.93,0,0,0-4.09-9.86,25.13,25.13,0,0,0-17.81-12.49l-.53-.09H573.6a4,4,0,0,1-1.15-.14,13.1,13.1,0,0,1-4.16-1.77,6.16,6.16,0,0,1-2.69-6.75l.14-.37h0a4.42,4.42,0,0,1,.24-2,5.65,5.65,0,0,1,.82-1.48c2-2.57,6.22-3.31,9.46-3.54h90.68a4.81,4.81,0,0,0,4.82-4.75l.26-25.61a4.82,4.82,0,0,1,4.82-4.76h18.33a4.83,4.83,0,0,0,4-2l.64-.92C713.62,884.69,736,843.93,730.2,794.39Z"/><path class="cls-6" d="M612.52,614.58h2.31A10.2,10.2,0,0,1,625,624.78v51A10.21,10.21,0,0,1,614.83,686h-2.31a10.21,10.21,0,0,1-10.21-10.2v-51A10.2,10.2,0,0,1,612.52,614.58Z"/><path class="cls-7" d="M508.84,641.93l2-1.15a10.22,10.22,0,0,1,14,3.67l25.71,44a10.2,10.2,0,0,1-3.68,14l-2,1.15a10.23,10.23,0,0,1-14-3.67l-25.71-44A10.19,10.19,0,0,1,508.84,641.93Z"/><path class="cls-8" d="M433.07,717.66l1.13-2a10.24,10.24,0,0,1,13.93-3.85l44.43,25.12a10.2,10.2,0,0,1,3.85,13.91l-1.13,2a10.24,10.24,0,0,1-13.93,3.85l-44.42-25.12A10.2,10.2,0,0,1,433.07,717.66Z"/><rect class="cls-9" x="405.74" y="808.23" width="71.49" height="22.7" rx="10.2" transform="translate(-10.25 5.6) rotate(-0.72)"/><path class="cls-10" d="M755.07,805.36l51-1.93a10.21,10.21,0,0,1,10.6,9.81l.09,2.3a10.22,10.22,0,0,1-9.83,10.58l-51,1.93a10.21,10.21,0,0,1-10.6-9.81l-.09-2.3A10.21,10.21,0,0,1,755.07,805.36Z"/><path class="cls-11" d="M728.23,735l43.1-27.32a10.23,10.23,0,0,1,14.11,3.14l1.23,1.94a10.18,10.18,0,0,1-3.15,14.08l-43.1,27.33a10.22,10.22,0,0,1-14.1-3.15l-1.24-1.94A10.2,10.2,0,0,1,728.23,735Z"/><path class="cls-12" d="M669.57,687.79,693,642.51a10.23,10.23,0,0,1,13.77-4.37l2,1.05a10.18,10.18,0,0,1,4.38,13.75l-23.45,45.28A10.22,10.22,0,0,1,676,702.6l-2-1.06A10.2,10.2,0,0,1,669.57,687.79Z"/><path class="cls-4" d="M661,160.9h3.42a9.15,9.15,0,0,1,9.32,9v27.34a9.09,9.09,0,0,1-9.07,9.12H559.13a9.1,9.1,0,0,1-9.22-9V170.06a9.11,9.11,0,0,1,9.05-9.17h88v-2.44q.75-28.29,1.51-56.58a2.85,2.85,0,0,0-.89-2.32,8.85,8.85,0,1,1,12.86-.11,3.2,3.2,0,0,0-1,2.57q.75,28.71,1.46,57.43A8.52,8.52,0,0,1,661,160.9Zm-49.23,40h52.1a3.91,3.91,0,0,0,4.47-4.46V171.14c0-3.54-1.31-4.79-4.8-4.79H560.11c-3.39,0-4.73,1.36-4.73,4.73v25c0,3.64,1.27,4.91,4.94,4.91Zm43.82-40c-.5-19.29-1-38.41-1.49-57.54h-.32q-.75,28.76-1.47,57.54Zm1.87-67.53a3.52,3.52,0,1,0-3.43,3.54A3.54,3.54,0,0,0,657.5,93.37Z"/><path class="cls-4" d="M635.1,47.73A2.88,2.88,0,0,1,638,49.64a2.61,2.61,0,0,1-1.18,3.1c-1.14.67-2.34,1.25-3.54,1.92a44.8,44.8,0,0,0-18.65,54.59c.16.37.3.74.44,1.11a2.71,2.71,0,0,1-4.89,2.33,2.13,2.13,0,0,1-.14-.35,44.48,44.48,0,0,1-3.66-15.22q-1.47-32.39,26.74-48.56A19.84,19.84,0,0,1,635.1,47.73Z"/><path class="cls-4" d="M620.49,92.84c.66-14.06,7-24.75,19.62-31.83a4.57,4.57,0,0,1,2.25-.6,2.4,2.4,0,0,1,2.32,2.18,2.57,2.57,0,0,1-1.56,2.91,29.22,29.22,0,0,0-8.64,6.4q-13,14.4-6.28,32.66c.12.34.26.66.35,1a2.63,2.63,0,0,1-1.77,3.19,2.47,2.47,0,0,1-3.24-1.27l-.06-.13c-1-3.06-1.89-6.14-2.62-9.27A39.74,39.74,0,0,1,620.49,92.84Z"/><path class="cls-4" d="M648.37,73.09a2.82,2.82,0,0,1,2.92,2.09,2.63,2.63,0,0,1-1.53,3,16.28,16.28,0,0,0-6.87,6,15.9,15.9,0,0,0-1.45,14.8c.11.3.25.56.34.86a2.69,2.69,0,0,1-1.43,3.53h0a2.63,2.63,0,0,1-3.48-1.29l-.07-.16A20.18,20.18,0,0,1,635,90.65,21.25,21.25,0,0,1,646.7,73.76,16.16,16.16,0,0,1,648.37,73.09Z"/><rect class="cls-4" x="566.37" y="180.92" width="19.27" height="7.9"/><rect class="cls-4" x="595.33" y="180.92" width="19.27" height="7.9"/><rect class="cls-4" x="563.28" y="208.13" width="25.61" height="10.49"/><rect class="cls-4" x="625.22" y="180.92" width="19.27" height="7.9"/><rect class="cls-4" x="634.5" y="208.13" width="25.61" height="10.49"/></g></g></g></svg>