<svg id="Layer_1" data-name="Layer 1" xmlns="http://www.w3.org/2000/svg" viewBox="0 0 480 480"><defs><style>.cls-1{fill:#0c6;}</style></defs><path class="cls-1" d="M47.72,129.6a22.08,22.08,0,0,0,17.06-4L80,114.4V224a16,16,0,0,0,16,16H240a16,16,0,0,0,16-16V114.46l15.2,11.2a22.29,22.29,0,0,0,26-36.18L256,60.32V16a8,8,0,0,0-8-8H216a8,8,0,0,0-8,8V26.4L172.62,1.46a8,8,0,0,0-9.23,0l-124.64,88a22.27,22.27,0,0,0,9,40.14ZM128,224V176h32v48Zm112,0H176V168a8,8,0,0,0-8-8H120a8,8,0,0,0-8,8v56H96V102.72l72-52.8,72,52.8ZM224,24h16V49L224,37.74ZM48,102.52,168,17.79l120,84.72a6.28,6.28,0,1,1-7.33,10.2l-108-79.19a8,8,0,0,0-9.46,0L55.31,112.71A6.29,6.29,0,1,1,48,102.52Z" transform="translate(0 0)"/><path class="cls-1" d="M184,168v32a8,8,0,0,0,8,8h32a8,8,0,0,0,8-8V168a8,8,0,0,0-8-8H192A8,8,0,0,0,184,168Zm16,8h16v16H200Z" transform="translate(0 0)"/><path class="cls-1" d="M136,112a32,32,0,1,0,32-32A32,32,0,0,0,136,112Zm48,0a16,16,0,1,1-16-16A16,16,0,0,1,184,112Z" transform="translate(0 0)"/><path class="cls-1" d="M16,384V128a8,8,0,0,1,8-8V104A24,24,0,0,0,0,128V384a24,24,0,0,0,24,24H296V392H24A8,8,0,0,1,16,384Z" transform="translate(0 0)"/><path class="cls-1" d="M456,104H320v16H456a8,8,0,0,1,8,8V384a8,8,0,0,1-8,8H440v16h16a24,24,0,0,0,24-24V128A24,24,0,0,0,456,104Z" transform="translate(0 0)"/><path class="cls-1" d="M368,304a40,40,0,1,0,40,40A40,40,0,0,0,368,304Zm0,64a24,24,0,1,1,24-24A24,24,0,0,1,368,368Z" transform="translate(0 0)"/><path class="cls-1" d="M435.77,327.84a26.43,26.43,0,0,1-4.14-4.51,24.44,24.44,0,0,1,.67-6.49,22.7,22.7,0,0,0-1.9-18.17,22.86,22.86,0,0,0-16.81-7.47,23.92,23.92,0,0,1-6.24-1.3,24.71,24.71,0,0,1-3.12-5.47,22.87,22.87,0,0,0-12.39-13.79,22.55,22.55,0,0,0-17.71,3.79,23.77,23.77,0,0,1-6.13,2.69,23.77,23.77,0,0,1-6.13-2.69,22.4,22.4,0,0,0-17.7-3.79,22.85,22.85,0,0,0-12.38,13.79,25.27,25.27,0,0,1-3.09,5.45,24.42,24.42,0,0,1-6.27,1.32,22.81,22.81,0,0,0-16.8,7.47,22.7,22.7,0,0,0-1.9,18.17,24.69,24.69,0,0,1,.68,6.46,25.19,25.19,0,0,1-4.15,4.54A23,23,0,0,0,290.88,344a23,23,0,0,0,9.36,16.17,26.06,26.06,0,0,1,4.14,4.51,24,24,0,0,1-.68,6.48,22.68,22.68,0,0,0,1.91,18.18,22.82,22.82,0,0,0,16.8,7.46,36.81,36.81,0,0,1,5.6,1V472a8,8,0,0,0,12.8,6.4L368,458l27.2,20.4A8,8,0,0,0,408,472V397.84a36.81,36.81,0,0,1,5.6-1,22.81,22.81,0,0,0,16.8-7.46,22.68,22.68,0,0,0,1.91-18.18,24.6,24.6,0,0,1-.68-6.46,25.47,25.47,0,0,1,4.15-4.53A23,23,0,0,0,445.12,344,23,23,0,0,0,435.77,327.84Zm-63,113.76a8,8,0,0,0-9.6,0L344,456V417.27c.07,0,.1.07.16.09a22.42,22.42,0,0,0,17.71-3.79,24.12,24.12,0,0,1,6.13-2.69,24.12,24.12,0,0,1,6.13,2.69,28.77,28.77,0,0,0,13.27,4.49,14.45,14.45,0,0,0,4.43-.7c.07,0,.11-.07.17-.09V456Zm51.95-93a28.33,28.33,0,0,0-8.34,11.2,29,29,0,0,0,.15,14.27,36.87,36.87,0,0,1,.74,5.84,34.39,34.39,0,0,1-5.86,1.1,22,22,0,0,0-21.66,15.73,33.67,33.67,0,0,1-2.89,5.27,37.23,37.23,0,0,1-5.19-2.45,29.37,29.37,0,0,0-13.7-4.65,29.38,29.38,0,0,0-13.69,4.6,36.35,36.35,0,0,1-5.2,2.47,33.69,33.69,0,0,1-2.88-5.27,28.72,28.72,0,0,0-8.12-11.51,28.8,28.8,0,0,0-13.61-4.23,34.05,34.05,0,0,1-5.83-1.1,34.68,34.68,0,0,1,.74-5.84,29.17,29.17,0,0,0,.15-14.26,28.22,28.22,0,0,0-8.35-11.2c-1.52-1.44-4.06-3.86-4.41-4.24a23.91,23.91,0,0,1,4.41-4.9,28.38,28.38,0,0,0,8.35-11.2,29.21,29.21,0,0,0-.15-14.27,34.69,34.69,0,0,1-.74-5.83,35.13,35.13,0,0,1,5.85-1.12,28.71,28.71,0,0,0,13.55-4.22,28.66,28.66,0,0,0,8.11-11.5,34.28,34.28,0,0,1,2.9-5.28,38.92,38.92,0,0,1,5.18,2.46A29.26,29.26,0,0,0,368,293.12a29.38,29.38,0,0,0,13.7-4.6,35.3,35.3,0,0,1,5.2-2.46,34.93,34.93,0,0,1,2.88,5.27,22,22,0,0,0,21.68,15.74,33.22,33.22,0,0,1,5.84,1.1,36.89,36.89,0,0,1-.74,5.83,29,29,0,0,0-.15,14.27,28.23,28.23,0,0,0,8.34,11.19A30.28,30.28,0,0,1,429,344,30.44,30.44,0,0,1,424.75,348.57Z" transform="translate(0 0)"/><path class="cls-1" d="M448,208V160a24,24,0,0,0-24-24H376v16h48a8,8,0,0,1,8,8v48Z" transform="translate(0 0)"/><path class="cls-1" d="M32,304v48a24,24,0,0,0,24,24h48V360H56a8,8,0,0,1-8-8V304Z" transform="translate(0 0)"/><path class="cls-1" d="M104,272H232v16H104Z" transform="translate(0 0)"/><path class="cls-1" d="M88,304H248v16H88Z" transform="translate(0 0)"/><path class="cls-1" d="M320,192h80v16H320Z" transform="translate(0 0)"/><path class="cls-1" d="M288,192h16v16H288Z" transform="translate(0 0)"/><path class="cls-1" d="M288,224H400v16H288Z" transform="translate(0 0)"/></svg>