<svg height="480pt" viewBox="0 0 480 480" width="480pt" xmlns="http://www.w3.org/2000/svg"><path d="m440 0h-400c-22.082031.0273438-39.9726562 17.917969-40 40v288c.0273438 22.082031 17.917969 39.972656 40 40h48v-16h-48c-13.253906 0-24-10.746094-24-24v-96.207031c6.882812 5.292969 15.316406 8.175781 24 8.207031h400c8.683594-.03125 17.117188-2.914062 24-8.207031v96.207031c0 13.253906-10.746094 24-24 24h-48v16h48c22.082031-.027344 39.972656-17.917969 40-40v-288c-.027344-22.082031-17.917969-39.9726562-40-40zm24 40v31.449219c-28.957031-3.691407-51.757812-26.492188-55.449219-55.449219h31.449219c13.253906 0 24 10.746094 24 24zm-424-24h31.449219c-3.691407 28.957031-26.492188 51.757812-55.449219 55.449219v-31.449219c0-13.253906 10.746094-24 24-24zm-24 184v-31.449219c28.957031 3.691407 51.757812 26.492188 55.449219 55.449219h-31.449219c-13.253906 0-24-10.746094-24-24zm71.59375 24c-3.855469-37.828125-33.765625-67.738281-71.59375-71.59375v-64.796875c37.835938-3.855469 67.746094-33.773437 71.59375-71.609375h304.796875c3.855469 37.835938 33.773437 67.746094 71.609375 71.59375v64.796875c-37.835938 3.855469-67.746094 33.773437-71.59375 71.609375zm376.40625-24c0 13.253906-10.746094 24-24 24h-31.449219c3.691407-28.957031 26.492188-51.757812 55.449219-55.449219zm0 0"/><path d="m240 56c-35.347656 0-64 28.652344-64 64s28.652344 64 64 64 64-28.652344 64-64c-.039062-35.328125-28.671875-63.960938-64-64zm0 112c-26.507812 0-48-21.492188-48-48s21.492188-48 48-48 48 21.492188 48 48c-.027344 26.5-21.5 47.972656-48 48zm0 0"/><path d="m336 112h16v16h-16zm0 0"/><path d="m128 112h16v16h-16zm0 0"/><path d="m32 256h136v16h-136zm0 0"/><path d="m32 288h96v16h-96zm0 0"/><path d="m32 320h64v16h-64zm0 0"/><path d="m344 256h104v16h-104zm0 0"/><path d="m352 288h96v16h-96zm0 0"/><path d="m384 320h64v16h-64zm0 0"/><path d="m110.742188 329.449219c-6.671876 4.570312-10.34375 12.398437-9.59375 20.453125.75 8.058594 5.804687 15.074218 13.210937 18.332031 7.402344 3.257813 15.992187 2.25 22.441406-2.632813l15.199219-11.203124v109.601562c0 8.835938 7.164062 16 16 16h144c8.835938 0 16-7.164062 16-16v-109.542969l15.199219 11.199219c3.800781 2.800781 8.398437 4.316406 13.121093 4.320312 1.320313-.003906 2.640626-.121093 3.945313-.351562 8.855469-1.5625 15.90625-8.300781 17.871094-17.082031 1.960937-8.777344-1.546875-17.875-8.898438-23.0625l-41.238281-29.160157v-44.320312c0-4.417969-3.582031-8-8-8h-32c-4.417969 0-8 3.582031-8 8v10.398438l-35.382812-24.972657c-2.769532-1.957031-6.464844-1.957031-9.234376 0zm89.257812 134.550781v-48h32v48zm112 0h-64v-56c0-4.417969-3.582031-8-8-8h-48c-4.417969 0-8 3.582031-8 8v56h-16v-121.273438l72-52.796874 72 52.796874zm-16-200h16v25.03125l-16-11.296875zm64 78.511719c1.898438 1.28125 2.949219 3.496093 2.746094 5.777343-.207032 2.28125-1.636719 4.269532-3.734375 5.191407-2.09375.921875-4.527344.628906-6.347657-.761719l-107.953124-79.199219c-2.816407-2.070312-6.652344-2.070312-9.472657 0l-107.949219 79.199219c-1.386718 1.011719-3.125 1.414062-4.816406 1.113281-1.6875-.304687-3.179687-1.28125-4.128906-2.710937-1.910156-2.832032-1.195312-6.667969 1.601562-8.625l120-84.71875zm0 0"/><path d="m256 408v32c0 4.417969 3.582031 8 8 8h32c4.417969 0 8-3.582031 8-8v-32c0-4.417969-3.582031-8-8-8h-32c-4.417969 0-8 3.582031-8 8zm16 8h16v16h-16zm0 0"/><path d="m208 352c0 17.671875 14.328125 32 32 32s32-14.328125 32-32-14.328125-32-32-32-32 14.328125-32 32zm48 0c0 8.835938-7.164062 16-16 16s-16-7.164062-16-16 7.164062-16 16-16 16 7.164062 16 16zm0 0"/></svg>