<svg id="Layer_1" data-name="Layer 1" xmlns="http://www.w3.org/2000/svg" viewBox="0 0 1425.8 529.11"><defs><style>.cls-1{fill:#fff;}</style></defs><path class="cls-1" d="M992.43,1138.13A38.78,38.78,0,0,0,963.5,1151l-102.06-59a30.32,30.32,0,0,0,2.18-12,38.75,38.75,0,1,0-77.5,0,30.15,30.15,0,0,0,2.18,12l-102.07,59a38.21,38.21,0,0,0-21-12V1021.06a34.54,34.54,0,0,0,11.46-4.37,37.78,37.78,0,0,0,17.2-45.58l102.06-58.94a38.49,38.49,0,0,0,57.86,0l102.06,58.94a30.87,30.87,0,0,0-2.18,12.29,38.62,38.62,0,1,0,38.75-38.76,37.24,37.24,0,0,0-28.93,13.1L861.44,898.8a36.43,36.43,0,0,0,2.18-12.28,38.75,38.75,0,0,0-77.5,0,36.18,36.18,0,0,0,2.18,12.28L686.23,957.74c-11.73-13.64-31.93-17.19-48.3-7.91-18.29,10.64-24.84,34.39-14.19,52.67a38.79,38.79,0,0,0,25.92,18.56V1139a36,36,0,0,0-11.73,4.37,38.64,38.64,0,1,0,38.75,66.86,34.3,34.3,0,0,0,9.55-7.91l102.07,58.94a37.79,37.79,0,0,0,17.19,45.58,38.86,38.86,0,0,0,53-14.19,37.51,37.51,0,0,0,3-31.39l102.06-58.94a37.24,37.24,0,0,0,28.93,13.09,38.62,38.62,0,0,0,0-77.23ZM853.8,1247.84a34.44,34.44,0,0,0-9.55-7.91c-16.38-9.28-36.57-5.73-48.31,7.91l-102.06-58.95a35.45,35.45,0,0,0,0-24.29l102.06-59.21a38,38,0,0,0,57.86,0l102.06,59.21a29.55,29.55,0,0,0-2.18,12,30.79,30.79,0,0,0,2.18,12.28Z" transform="translate(-587.58 -815.44)"/><path class="cls-1" d="M824.77,1344.56a60.06,60.06,0,0,1-30.07-8L617.65,1234.3a60.3,60.3,0,0,1-30.07-52.08V977.78a60.3,60.3,0,0,1,30.07-52.08L794.7,823.48a60.3,60.3,0,0,1,60.14,0L1031.89,925.7A60.3,60.3,0,0,1,1062,977.78v204.44a60.3,60.3,0,0,1-30.07,52.08L854.84,1336.52A60.12,60.12,0,0,1,824.77,1344.56Zm0-520.73a51.83,51.83,0,0,0-25.88,6.91L621.84,933A51.87,51.87,0,0,0,596,977.78v204.44A51.9,51.9,0,0,0,621.84,1227l177,102.22a51.92,51.92,0,0,0,51.75,0L1027.69,1227a51.91,51.91,0,0,0,25.88-44.82V977.78A51.88,51.88,0,0,0,1027.69,933L850.64,830.74A51.82,51.82,0,0,0,824.77,823.83Z" transform="translate(-587.58 -815.44)"/><path class="cls-1" d="M1254.29,1024.49q4,0,8.13-.09t7.52-.08q3.38,0,6.48-.09c2.08-.06,3.92-.08,5.54-.08s3,0,4.23-.09,2.1-.09,2.68-.09h1a1.89,1.89,0,0,1,1.81.35,2.59,2.59,0,0,1,1.3,1.38v.35a1.38,1.38,0,0,1,.17.52,17.52,17.52,0,0,1-2.59,8.81,30.1,30.1,0,0,1-7.95,8.3,18.48,18.48,0,0,1-7.44,2.34q-4.14.43-27,.6-29.74.36-32.68,1.21a57.76,57.76,0,0,0-14.7,6.23,48.83,48.83,0,0,0-11.07,10.55,47,47,0,0,0-6.4,11.06,45.48,45.48,0,0,0-2.93,17.12,51.4,51.4,0,0,0,.6,8.47,26.89,26.89,0,0,0,1.38,5.54q.78,1.9,2.51,5.88a40.68,40.68,0,0,0,11.76,14.78,45.48,45.48,0,0,0,17.29,9.08,43.5,43.5,0,0,0,10.89,1.21q12.79,0,21.27-4.67,7.6-4.5,10-6.74a54.62,54.62,0,0,0,13.14-19.89,4,4,0,0,0,.52-1.73q0-1.38-12.28-1.38h-4.66q-16.44,0-19-.69-7.43-2.09-12.1-9.51-3.46-5.36-3.46-9.86c0-.8,1.13-1.27,3.37-1.38s9-.17,20.15-.17H1255q36.48,0,37,.69c.58.8.87,4.21.87,10.2q0,3.63-.35,7.78-2.94,20.74-13.14,32.85a98.16,98.16,0,0,1-15,14.7,82.27,82.27,0,0,1-8.73,5.1,42.6,42.6,0,0,1-8,3.55c-1,.23-3.37.78-7,1.64s-5.85,1.41-6.66,1.64a32.5,32.5,0,0,1-7.26.87q-6.57,0-19.19-3.12a61.75,61.75,0,0,1-21.36-10.46,67.55,67.55,0,0,1-16.86-17.55q-4.14-6.22-4.49-7.61a19.71,19.71,0,0,0-1-2.42q-2.07-2.94-4.67-15.56a66.25,66.25,0,0,1-.52-10.2,94.58,94.58,0,0,1,.87-15.39q2.25-9,4.15-12.8a4.47,4.47,0,0,0,.52-.86l.69-1.38a10.7,10.7,0,0,0,.52-1.21,66.68,66.68,0,0,1,15.73-20.41,62.1,62.1,0,0,1,21.79-13.14,63.41,63.41,0,0,1,14.87-3.28Q1224.2,1024.84,1254.29,1024.49Z" transform="translate(-587.58 -815.44)"/><path class="cls-1" d="M1311.18,1081.9q.67-.69,29.22-.69h11.41q12.27,0,15.22.34c2,.24,2.94.81,2.94,1.73a7.85,7.85,0,0,1-.18,1.9q-1,9.16-9.85,14.87a14.93,14.93,0,0,1-5.62,2.51,109.86,109.86,0,0,1-11,.78l-10.38.17-.17,16.6V1126c0,7.26.17,11.07.52,11.41s9.91.69,28.36.69,28.7.29,30.43.87a36.11,36.11,0,0,1,4.5,1.9,18.51,18.51,0,0,1,4.84,4.06,22.17,22.17,0,0,1,3.8,5.28,17.72,17.72,0,0,1,2.08,8,3.54,3.54,0,0,1-.18,1.39,1.1,1.1,0,0,1-.51.51,12.45,12.45,0,0,1-2.77.35c-1.62.11-3.89.17-6.83.17h-37.61q-47.2-.16-47.72-.86-.36-.69-.7-39.08,0-8.3-.08-18.24t-.09-11.85C1310.83,1085,1310.94,1082.13,1311.18,1081.9Zm14.18-56.2,3.11-1.21h60q12.62,0,16,.35c2.25.23,3.37.8,3.37,1.73a2,2,0,0,1-.17.77,9.38,9.38,0,0,0-.34,1.13c-.12.46-.24.86-.35,1.21a23.44,23.44,0,0,1-5.27,9.94,20.64,20.64,0,0,1-9.25,6.14q-2.78.87-41.68.86-38.73,0-39.59-.86a4,4,0,0,1-.18-1.73c0-2.3.23-3.74.7-4.32a5.73,5.73,0,0,0,.69-2.08c.11-1,1-2.56,2.76-4.58a26.92,26.92,0,0,1,4.84-4.58A25.76,25.76,0,0,1,1325.36,1025.7Z" transform="translate(-587.58 -815.44)"/><path class="cls-1" d="M1516.6,1025.7a28.84,28.84,0,0,1,3.37-.69,2.08,2.08,0,0,1,1.12.52q.69,1,.69,79.54,0,54.3-.51,54.81a1.06,1.06,0,0,1-1.3.17,2.11,2.11,0,0,1-1.13-1.21,20.21,20.21,0,0,0-2.59-3.28q-3.29-3.29-11.76-12.62c-.58-.69-1.73-1.91-3.46-3.63-.34-.35-.89-1-1.64-1.82s-1.76-2-3-3.37-2.37-2.6-3.29-3.63q-4.32-5-9.34-10-2.25-2.25-8.9-9.77t-7.52-8.39q-2.43-2.6-12.8-13.83-5.88-6.57-6.92-6.57c-.23,0-.34.23-.34.69q0,14.7-.18,31.64v30.61l-1.2,2.25q-3.64,6.57-6.58,8.64-7.42,5.36-11.58,5.36a2.75,2.75,0,0,1-.52-.08,2.33,2.33,0,0,0-.52-.09c-.46-.12-.86-1.5-1.21-4.15s-.34-25.07-.34-66.92q0-63.11.69-63.28h.17q.87,0,9,8.64,2.6,2.77,5.45,6t5.1,5.62q4.5,5,17.9,19.36t19.79,21.62c1.27,1.5,2.66,3,4.15,4.49s3.23,3.35,5.19,5.54q5.88,6.39,6.4,6.39h.34c.24-.11.35-3.68.35-10.72q0-4-.09-14.69t-.08-16.08q0-18,.86-21.1Q1504.15,1029.16,1516.6,1025.7Z" transform="translate(-587.58 -815.44)"/><path class="cls-1" d="M1539.07,1025.53l.18-1h37.52c7.37,0,12.22.29,14.52.87,1.39.34,3.29.92,5.71,1.72a54.5,54.5,0,0,1,5.53,2.86,41.82,41.82,0,0,1,4.84,3c.7.7,1.16.93,1.39.7l3.8,3.63a36.07,36.07,0,0,1,10,25.42q0,9.16-2.77,15.21-1.2,2.43-2.24,4.84a34,34,0,0,1-4.59,6.66,29.77,29.77,0,0,1-6,5.79,48,48,0,0,1-10.55,5.36c-2.19.69-3.34,1.45-3.46,2.25s-.11,1,.35,1a8.78,8.78,0,0,1,1.55,1.73q1.39,1.73,2.77,3.46l1.38,1.9a28.78,28.78,0,0,1,2.25,2.76,116.71,116.71,0,0,0,7.61,9.86,9.65,9.65,0,0,1,.86,1l1.3,1.73,1.3,1.73q1.38,1.9,4.67,6.22c2.19,2.88,3.46,4.56,3.8,5q10.2,12.78,13.32,17.63c.8,1,1,1.85.51,2.42s-1.49.64-3.45.52a60.08,60.08,0,0,1-27.5-10.37q-7.08-5-16.94-18.5-12.45-16.77-14.87-19.72-5.72-8.46-8.48-8.47a2.15,2.15,0,0,0-1.55.69q-.53.69-.61,19.45t-1.47,23.09a19,19,0,0,1-6.14,8.82,23.31,23.31,0,0,1-10.28,4.84c-1.73.34-2.83.23-3.29-.35s-.52-15.39-.52-44.44l-.17-43.57a8.49,8.49,0,0,1,1.9-.17q7.1,0,13.66,6.57l3.46,3.46q5-.18,14.87-.44t14.87-.26l3.11-1.55a16.57,16.57,0,0,0,5.19-4.24,16.11,16.11,0,0,0,3.29-5.79,17,17,0,0,0,.69-5.53,16.34,16.34,0,0,0-.69-5.36,19.63,19.63,0,0,0-3.12-5.36c-1.38-1.73-2.48-2.6-3.28-2.6a2.38,2.38,0,0,1-1.56-.86,11,11,0,0,0-5.27-1.9,156.46,156.46,0,0,0-15.65-.7q-16.08-.34-18-1.21a24.07,24.07,0,0,1-9-6.39,22,22,0,0,1-3.46-6.14,18,18,0,0,1-1.56-6.31,2.24,2.24,0,0,1,.09-.52A2.87,2.87,0,0,0,1539.07,1025.53Z" transform="translate(-587.58 -815.44)"/><path class="cls-1" d="M1653.89,1025q.34-.52,14.87-.52h14.7q29.57.18,31.47,1a50.78,50.78,0,0,1,10.2,5.88,34,34,0,0,1,6.57,7.26,33.05,33.05,0,0,1,4.49,9.86q.69,2.25.7,12.45a62.49,62.49,0,0,1-.52,10q-1.56,7.27-3.12,9.34a4.35,4.35,0,0,0-.86,1.56q0,.69-2.33,4.06a18,18,0,0,1-3.38,4.07,2.78,2.78,0,0,0-1.38,2.07c0,.69.87,1.9,2.59,3.63q5.88,5.71,8.3,16.6.69,2.94.7,12.45a55.89,55.89,0,0,1-.52,9.51,30.93,30.93,0,0,1-8.22,15.48,31.67,31.67,0,0,1-15.3,8.73q-5.19,1.2-17.12,1.21a125.32,125.32,0,0,1-21.09-1.9q-4.5-.7-11.24-6.75a32,32,0,0,1-6.92-9.51q-2.94-5.86-2.94-17.12,0-10.2,2.42-16.77,3.12-8.46,7.78-13c1.15-.92,1.73-1.67,1.73-2.24s-.63-1.44-1.9-2.94a34.35,34.35,0,0,1-9.34-19.89q-.51-6.73-.52-35.45Q1653.71,1025.35,1653.89,1025Zm53.43,22.48q-2.08-.87-16.43-.87t-14.87.7c-.35.34-.52,1.61-.52,3.8,0,.35,0,1.21.09,2.59s.08,2.54.08,3.46q.18,9.16,1.56,12.11a22.47,22.47,0,0,0,4,5.7,18.12,18.12,0,0,0,14,6,18.33,18.33,0,0,0,14.18-6,19.41,19.41,0,0,0,5.36-11.24,28.34,28.34,0,0,0,.35-3.63Q1715.1,1050.95,1707.32,1047.49Zm-11.59,55.85q-8.82,0-14.26,5.53T1676,1123.4c0,3.57.23,5.88.69,6.91a11.09,11.09,0,0,0,3.2,3.89,14.91,14.91,0,0,0,4.41,2.86,45.87,45.87,0,0,0,9.68.69q8.48,0,11.59-.87a12,12,0,0,0,6.91-5,15.55,15.55,0,0,0,2.6-9,20.51,20.51,0,0,0-.52-4.67,19.77,19.77,0,0,0-10.55-13.14A17.76,17.76,0,0,0,1695.73,1103.34Z" transform="translate(-587.58 -815.44)"/><path class="cls-1" d="M1756.42,1093.83q.69-.52,20.06-.52h19.2a5.26,5.26,0,0,1,.69,2.59q0,2.6-3.29,5.19-2.41,2.07-11.58,2.08h-8.13q-9.86-.18-12.1-.78t-4.33-3.72a5.94,5.94,0,0,1-1.38-3.28A1.49,1.49,0,0,1,1756.42,1093.83Z" transform="translate(-587.58 -815.44)"/><path class="cls-1" d="M1815.9,1026.57c.35-.46,3.4-.7,9.17-.7q1.38,0,6.83.09t9.6.09q25.07.17,28.35,1.21a37.49,37.49,0,0,1,20.75,14.52,39.77,39.77,0,0,1,8.13,24,35.38,35.38,0,0,1-.69,7.26,40.75,40.75,0,0,1-7.78,16.77q-2.94,3.47-2.94,4.15a11.84,11.84,0,0,0,2.07,2.77,39.59,39.59,0,0,1,7.44,13.14,36.15,36.15,0,0,1,1.73,11.76,42.56,42.56,0,0,1-.69,8.73,47.57,47.57,0,0,1-2.94,8,38.58,38.58,0,0,1-18.68,18.85,33.88,33.88,0,0,1-10.37,3.37q-4.16.43-25.59.78l-25.08.34.18-3.11a17.58,17.58,0,0,1,2.5-7.61,20.62,20.62,0,0,1,5.28-6.39,7.35,7.35,0,0,1,.95-.78c.4-.29.75-.55,1-.78s.48-.4.6-.52a7.92,7.92,0,0,1,2.94-1.73q2.6-1.2,18.5-1.38,15.91-.35,18-.87,4-1.38,7.61-6a16.21,16.21,0,0,0,3.81-9.6v-1.9a10.29,10.29,0,0,0-.87-4.32c-.11-.35-.26-.75-.43-1.21s-.32-.81-.43-1l-.17-.52c0-.46-.7-1.47-2.08-3a17.18,17.18,0,0,0-2.94-2.85,23,23,0,0,0-8.3-2.94,46.52,46.52,0,0,1-10.72-2.16,20.71,20.71,0,0,1-6.57-4.41,23.11,23.11,0,0,1-6.23-10.89,14.47,14.47,0,0,1-.51-3.11c0-1,.4-1.62,1.21-1.73l13-.35a100.93,100.93,0,0,0,12.63-.69,15.43,15.43,0,0,0,6-2.94,15.77,15.77,0,0,0,4.5-5.88,17.54,17.54,0,0,0,2.07-7.78q0-11.41-10.55-16.26-2.42-1.2-14-1.38a6.75,6.75,0,0,1-1.13-.08,5.68,5.68,0,0,0-1.12-.09h-2.77l-16.08-.17-3.28-1.56a20.47,20.47,0,0,1-10.55-10.55,17.17,17.17,0,0,1-1.9-6.74A2.7,2.7,0,0,1,1815.9,1026.57Z" transform="translate(-587.58 -815.44)"/><path class="cls-1" d="M1917.58,1025q.35-.16,23.34-.17,22.83.17,27.32,1.21,8.64,1.73,11.76,3.46.16,0,5,2.76a57.29,57.29,0,0,1,12.45,9.77,48.09,48.09,0,0,1,9,12c1,1.84,1.62,2.82,1.73,2.94a1.91,1.91,0,0,1,.7,1.21,9.05,9.05,0,0,0,1,2.59,60.23,60.23,0,0,1,2.77,10.2q.69,4.34.69,26.29,0,18.15-.43,22.91a40,40,0,0,1-2.51,10.29,49.3,49.3,0,0,1-11.93,17.63,38.77,38.77,0,0,1-15.22,9.17,48.66,48.66,0,0,1-11.24,2.59q-4.5.34-26.62.35-27.68,0-28-.35-.51-.35-.52-44.09v-43.58a6.84,6.84,0,0,1,2.43-.86,24.55,24.55,0,0,1,4.15,1q12.27,4,15,15.91.51,3.63.52,25.59,0,23.68.86,23.86,1,.35,14.18.34a138.17,138.17,0,0,0,15.91-.6,28,28,0,0,0,8.47-2.51,22.54,22.54,0,0,0,9.51-9.16,18.89,18.89,0,0,0,2.85-7.61q.43-3.63.44-19.71,0-15.91-.52-20.06a34.07,34.07,0,0,0-2.94-9.51,39.06,39.06,0,0,0-9.08-12.19,33.1,33.1,0,0,0-12.36-7.35,40.07,40.07,0,0,1-4.5-1.56q-1.38-.51-15-.86-14-.17-15.56-.86a21.57,21.57,0,0,1-10.55-8.65q-3.81-5.54-3.81-10.55A2.25,2.25,0,0,1,1917.58,1025Z" transform="translate(-587.58 -815.44)"/></svg>