<svg id="Layer_1" data-name="Layer 1" xmlns="http://www.w3.org/2000/svg" viewBox="0 0 1425.76 529.11"><defs><style>.cls-1{fill:#231f20;}</style></defs><path class="cls-1" d="M404.85,322.69a38.78,38.78,0,0,0-28.93,12.87l-102.06-59a30.4,30.4,0,0,0,2.18-12,38.75,38.75,0,0,0-77.5,0,30.05,30.05,0,0,0,2.18,12l-102.07,59a38.23,38.23,0,0,0-21-12V205.62a34.49,34.49,0,0,0,11.46-4.37,37.78,37.78,0,0,0,17.2-45.58L208.37,96.73a38.49,38.49,0,0,0,57.86,0l102.06,58.94A30.78,30.78,0,0,0,366.11,168a38.62,38.62,0,1,0,38.75-38.76,37.21,37.21,0,0,0-28.93,13.1L273.86,83.36A36.48,36.48,0,0,0,276,71.08a38.75,38.75,0,0,0-77.5,0h0a36.23,36.23,0,0,0,2.18,12.28L98.65,142.3c-11.73-13.64-31.93-17.19-48.3-7.91C32.06,145,25.51,168.78,36.16,187.06a38.79,38.79,0,0,0,25.92,18.56V323.56a35.92,35.92,0,0,0-11.73,4.37A38.64,38.64,0,1,0,88.57,395.1l.53-.31a34.32,34.32,0,0,0,9.55-7.91l102.07,58.94a37.8,37.8,0,0,0,17.19,45.58,38.86,38.86,0,0,0,53-14.19,37.52,37.52,0,0,0,3-31.39L376,386.88A37.27,37.27,0,0,0,404.9,400a38.62,38.62,0,0,0,0-77.23ZM266.22,432.4a34.5,34.5,0,0,0-9.55-7.91c-16.38-9.28-36.57-5.73-48.31,7.91L106.3,373.45a35.46,35.46,0,0,0,0-24.29L208.36,290a38,38,0,0,0,57.86,0l102.06,59.21a29.51,29.51,0,0,0-2.18,12,30.7,30.7,0,0,0,2.18,12.28Z" transform="translate(0 -0.01)"/><path class="cls-1" d="M237.19,529.12a60.11,60.11,0,0,1-30.07-8l-177-102.26A60.3,60.3,0,0,1,0,366.78V162.34a60.3,60.3,0,0,1,30.07-52.08L207.12,8a60.3,60.3,0,0,1,60.14,0L444.31,110.26a60.3,60.3,0,0,1,30.11,52.08V366.78a60.3,60.3,0,0,1-30.07,52.08L267.26,521.08A60.09,60.09,0,0,1,237.19,529.12Zm0-520.73a51.89,51.89,0,0,0-25.88,6.91l-177,102.26A51.86,51.86,0,0,0,8.42,162.34V366.78a51.92,51.92,0,0,0,25.84,44.78l177,102.22a51.92,51.92,0,0,0,51.75,0l177.1-102.22A51.91,51.91,0,0,0,466,366.74V162.34a51.89,51.89,0,0,0-25.88-44.78L263.06,15.3a51.85,51.85,0,0,0-25.87-6.91Z" transform="translate(0 -0.01)"/><path class="cls-1" d="M666.71,209.05q4,0,8.13-.09t7.52-.08q3.38,0,6.48-.09c2.08-.06,3.92-.08,5.54-.08s3,0,4.23-.09,2.1-.09,2.68-.09h1a1.89,1.89,0,0,1,1.81.35,2.58,2.58,0,0,1,1.3,1.38v.35a1.38,1.38,0,0,1,.17.52,17.49,17.49,0,0,1-2.59,8.81,30.06,30.06,0,0,1-8,8.3,18.42,18.42,0,0,1-7.44,2.34q-4.14.43-27,.6-29.75.36-32.68,1.21a57.9,57.9,0,0,0-14.7,6.23,48.64,48.64,0,0,0-11.07,10.55,47,47,0,0,0-6.4,11.06,45.49,45.49,0,0,0-2.93,17.12,52.14,52.14,0,0,0,.6,8.47,27.06,27.06,0,0,0,1.38,5.54q.78,1.9,2.51,5.88A40.82,40.82,0,0,0,609.06,312a45.57,45.57,0,0,0,17.29,9.08,43.37,43.37,0,0,0,10.89,1.21q12.79,0,21.27-4.67,7.61-4.5,10-6.74A54.56,54.56,0,0,0,681.65,291a4,4,0,0,0,.52-1.73q0-1.38-12.28-1.38h-4.66q-16.44,0-19-.69-7.43-2.08-12.1-9.51-3.46-5.35-3.46-9.86c0-.8,1.13-1.27,3.37-1.38s9-.17,20.15-.17h13.23q36.48,0,37,.69c.58.8.87,4.21.87,10.2q0,3.63-.35,7.78Q702,305.71,691.8,317.81a98.36,98.36,0,0,1-15,14.7,81.84,81.84,0,0,1-8.73,5.1,43.32,43.32,0,0,1-8,3.55l-7,1.64q-5.45,1.29-6.66,1.64a32.83,32.83,0,0,1-7.26.87q-6.57,0-19.19-3.12a61.68,61.68,0,0,1-21.36-10.46,67.49,67.49,0,0,1-16.86-17.55q-4.14-6.23-4.49-7.61a19,19,0,0,0-1-2.42q-2.07-2.94-4.67-15.56a65.6,65.6,0,0,1-.52-10.2,94.28,94.28,0,0,1,.87-15.39q2.25-9,4.15-12.8a4.19,4.19,0,0,0,.52-.86l.69-1.38a10.75,10.75,0,0,0,.52-1.21,66.81,66.81,0,0,1,15.73-20.41,62.11,62.11,0,0,1,21.79-13.14,63.18,63.18,0,0,1,14.87-3.28Q636.62,209.4,666.71,209.05Z" transform="translate(0 -0.01)"/><path class="cls-1" d="M723.6,266.46q.67-.69,29.22-.69h11.41q12.27,0,15.22.34c2,.24,2.94.81,2.94,1.73a7.56,7.56,0,0,1-.18,1.9q-1,9.17-9.85,14.87a14.93,14.93,0,0,1-5.62,2.51q-5.47.66-11,.78l-10.38.17-.17,16.6v5.89c0,7.26.17,11.07.52,11.41s9.91.69,28.36.69,28.7.29,30.43.87a37,37,0,0,1,4.5,1.9,18.69,18.69,0,0,1,4.84,4.06,22,22,0,0,1,3.8,5.28,17.76,17.76,0,0,1,2.08,8,3.65,3.65,0,0,1-.18,1.39,1.14,1.14,0,0,1-.51.51,12.36,12.36,0,0,1-2.77.35c-1.62.11-3.89.17-6.83.17H771.82q-47.21-.17-47.72-.86-.36-.69-.7-39.08,0-8.29-.08-18.24t-.09-11.85C723.25,269.56,723.36,266.69,723.6,266.46Zm14.18-56.2,3.11-1.21h60q12.61,0,16,.35c2.25.23,3.37.8,3.37,1.73a1.84,1.84,0,0,1-.17.77,9.15,9.15,0,0,0-.34,1.13c-.12.46-.24.86-.35,1.21a23.41,23.41,0,0,1-5.27,9.94,20.59,20.59,0,0,1-9.25,6.14q-2.77.87-41.68.86-38.73,0-39.59-.86a3.92,3.92,0,0,1-.18-1.73c0-2.3.23-3.74.7-4.32a5.68,5.68,0,0,0,.69-2.08c.11-1,1-2.56,2.76-4.58a26.93,26.93,0,0,1,4.84-4.58,25.68,25.68,0,0,1,5.36-2.77Z" transform="translate(0 -0.01)"/><path class="cls-1" d="M929,210.26a27.58,27.58,0,0,1,3.37-.69,2.11,2.11,0,0,1,1.12.52q.69,1,.69,79.54,0,54.3-.51,54.81a1.06,1.06,0,0,1-1.3.17,2.1,2.1,0,0,1-1.13-1.21,20.54,20.54,0,0,0-2.59-3.28q-3.28-3.28-11.76-12.62c-.58-.69-1.73-1.91-3.46-3.63-.34-.35-.89-1-1.64-1.82s-1.76-2-3-3.37-2.37-2.6-3.29-3.63q-4.32-5-9.34-10-2.25-2.25-8.9-9.77t-7.52-8.39q-2.43-2.59-12.8-13.83-5.88-6.57-6.92-6.57c-.23,0-.34.23-.34.69q0,14.7-.18,31.64v30.61l-1.2,2.25q-3.65,6.57-6.58,8.64-7.43,5.35-11.58,5.36a3,3,0,0,1-.52-.08,2.27,2.27,0,0,0-.52-.09c-.46-.12-.86-1.5-1.21-4.15s-.34-25.07-.34-66.92q0-63.1.69-63.28h.17q.87,0,9,8.64,2.6,2.77,5.45,6c1.9,2.15,3.6,4,5.1,5.62q4.5,5,17.9,19.36t19.79,21.62c1.27,1.5,2.66,3,4.15,4.49s3.23,3.35,5.19,5.54q5.88,6.39,6.4,6.39h.34c.24-.11.35-3.68.35-10.72q0-4-.09-14.69t-.08-16.08q0-18,.86-21.1Q916.57,213.72,929,210.26Z" transform="translate(0 -0.01)"/><path class="cls-1" d="M951.49,210.09l.18-1h37.52c7.37,0,12.22.29,14.52.87,1.39.34,3.29.92,5.71,1.72a54.55,54.55,0,0,1,5.53,2.86,41.5,41.5,0,0,1,4.84,3c.7.7,1.16.93,1.39.7l3.8,3.63a36,36,0,0,1,10,25.42q0,9.17-2.77,15.21-1.2,2.43-2.24,4.84a34.16,34.16,0,0,1-4.59,6.66,29.94,29.94,0,0,1-6,5.79,48.06,48.06,0,0,1-10.55,5.36c-2.19.69-3.34,1.45-3.46,2.25s-.11,1,.35,1a9.1,9.1,0,0,1,1.55,1.73c.93,1.15,1.85,2.31,2.77,3.46l1.38,1.9a27.09,27.09,0,0,1,2.25,2.76,117.06,117.06,0,0,0,7.61,9.86,9.07,9.07,0,0,1,.86,1l1.3,1.73,1.3,1.73q1.38,1.9,4.67,6.22l3.8,5q10.2,12.78,13.32,17.63c.8,1,1,1.85.51,2.42s-1.49.64-3.45.52a60.15,60.15,0,0,1-27.5-10.37q-7.08-5-16.94-18.5-12.45-16.77-14.87-19.72-5.71-8.46-8.48-8.47a2.17,2.17,0,0,0-1.55.69q-.53.69-.61,19.45t-1.47,23.09a19,19,0,0,1-6.14,8.82,23.26,23.26,0,0,1-10.28,4.84c-1.73.34-2.83.23-3.29-.35s-.52-15.39-.52-44.44l-.17-43.57a8.1,8.1,0,0,1,1.9-.17q7.1,0,13.66,6.57l3.46,3.46q5-.18,14.87-.44t14.87-.26l3.11-1.55a16.64,16.64,0,0,0,5.19-4.24,16,16,0,0,0,3.29-5.79,16.94,16.94,0,0,0,.69-5.53,16.23,16.23,0,0,0-.69-5.36,19.59,19.59,0,0,0-3.12-5.36c-1.38-1.73-2.48-2.6-3.28-2.6a2.36,2.36,0,0,1-1.56-.86,11,11,0,0,0-5.27-1.9q-7.8-.74-15.65-.7-16.08-.34-18-1.21a24,24,0,0,1-9-6.39,22,22,0,0,1-3.46-6.14,17.91,17.91,0,0,1-1.56-6.31,2.27,2.27,0,0,1,.09-.52A3.38,3.38,0,0,0,951.49,210.09Z" transform="translate(0 -0.01)"/><path class="cls-1" d="M1066.31,209.56q.35-.52,14.87-.52h14.7q29.56.18,31.47,1a50.71,50.71,0,0,1,10.2,5.88,34.11,34.11,0,0,1,6.57,7.26,33,33,0,0,1,4.49,9.86q.69,2.25.7,12.45a63.06,63.06,0,0,1-.52,10q-1.56,7.27-3.12,9.34a4.42,4.42,0,0,0-.86,1.56q0,.69-2.33,4.06a17.87,17.87,0,0,1-3.38,4.07,2.78,2.78,0,0,0-1.38,2.07c0,.69.87,1.9,2.59,3.63q5.88,5.71,8.3,16.6.69,2.94.7,12.45a56,56,0,0,1-.52,9.51,30.91,30.91,0,0,1-8.22,15.48,31.63,31.63,0,0,1-15.3,8.73q-5.19,1.2-17.12,1.21a125.29,125.29,0,0,1-21.09-1.9q-4.5-.71-11.24-6.75a32.15,32.15,0,0,1-6.92-9.51q-2.94-5.87-2.94-17.12,0-10.2,2.42-16.77,3.12-8.46,7.78-13c1.15-.92,1.73-1.67,1.73-2.24s-.63-1.44-1.9-2.94a34.34,34.34,0,0,1-9.34-19.89q-.51-6.74-.52-35.45C1066.13,212.82,1066.19,209.79,1066.31,209.56ZM1119.74,232q-2.09-.87-16.43-.87t-14.87.7c-.35.34-.52,1.61-.52,3.8,0,.35,0,1.21.09,2.59s.08,2.54.08,3.46q.18,9.17,1.56,12.11a22.45,22.45,0,0,0,4,5.7,18.14,18.14,0,0,0,14,6,18.34,18.34,0,0,0,14.18-6,19.42,19.42,0,0,0,5.36-11.24,29.34,29.34,0,0,0,.35-3.63q0-9.15-7.8-12.61Zm-11.59,55.85q-8.82,0-14.26,5.53T1088.42,308c0,3.57.23,5.88.69,6.91a11.06,11.06,0,0,0,3.2,3.89,14.74,14.74,0,0,0,4.41,2.86,46.17,46.17,0,0,0,9.68.69q8.47,0,11.59-.87a12,12,0,0,0,6.91-5,15.54,15.54,0,0,0,2.6-9,20.39,20.39,0,0,0-.52-4.67,19.79,19.79,0,0,0-10.55-13.14,17.68,17.68,0,0,0-8.28-1.73Z" transform="translate(0 -0.01)"/><path class="cls-1" d="M1168.84,278.39q.69-.52,20.06-.52h19.2a5.23,5.23,0,0,1,.69,2.59q0,2.6-3.29,5.19-2.41,2.07-11.58,2.08h-8.13q-9.86-.18-12.1-.78c-1.49-.4-2.94-1.64-4.33-3.72A6,6,0,0,1,1168,280,1.49,1.49,0,0,1,1168.84,278.39Z" transform="translate(0 -0.01)"/><path class="cls-1" d="M1228.32,211.13c.35-.46,3.4-.7,9.17-.7q1.38,0,6.83.09t9.6.09q25.07.16,28.35,1.21A37.5,37.5,0,0,1,1303,226.34a39.8,39.8,0,0,1,8.13,24,35.37,35.37,0,0,1-.69,7.26,40.76,40.76,0,0,1-7.78,16.77c-2,2.31-2.94,3.7-2.94,4.15a11.93,11.93,0,0,0,2.07,2.77,39.47,39.47,0,0,1,7.44,13.14,36.09,36.09,0,0,1,1.73,11.76,42.57,42.57,0,0,1-.69,8.73,47.33,47.33,0,0,1-2.94,8,38.6,38.6,0,0,1-18.68,18.85,33.82,33.82,0,0,1-10.37,3.37q-4.15.44-25.59.78l-25.08.34.18-3.11a17.57,17.57,0,0,1,2.5-7.61,20.63,20.63,0,0,1,5.28-6.39,6.46,6.46,0,0,1,1-.78,11.84,11.84,0,0,0,1-.78c.25-.23.48-.4.6-.52a8,8,0,0,1,2.94-1.73q2.6-1.2,18.5-1.38,15.92-.34,18-.87,4-1.38,7.61-6a16.23,16.23,0,0,0,3.81-9.6v-1.9a10.18,10.18,0,0,0-.87-4.32c-.11-.35-.26-.75-.43-1.21a7.41,7.41,0,0,0-.43-1l-.17-.52c0-.46-.7-1.47-2.08-3a17.24,17.24,0,0,0-2.94-2.85,23,23,0,0,0-8.3-2.94,46.67,46.67,0,0,1-10.72-2.16,20.7,20.7,0,0,1-6.57-4.41,23.14,23.14,0,0,1-6.23-10.89,15,15,0,0,1-.51-3.11c0-1,.4-1.62,1.21-1.73l13-.35a102.49,102.49,0,0,0,12.63-.69,15.38,15.38,0,0,0,6-2.94,15.66,15.66,0,0,0,4.5-5.88,17.63,17.63,0,0,0,2.07-7.78q0-11.42-10.55-16.26-2.41-1.2-14-1.38a6.08,6.08,0,0,1-1.13-.08,5.24,5.24,0,0,0-1.12-.09h-2.77l-16.08-.17-3.28-1.56a20.43,20.43,0,0,1-10.55-10.55,17.11,17.11,0,0,1-1.9-6.74A2.73,2.73,0,0,1,1228.32,211.13Z" transform="translate(0 -0.01)"/><path class="cls-1" d="M1330,209.56q.35-.17,23.34-.17,22.83.17,27.32,1.21,8.64,1.72,11.76,3.46c.11,0,1.77.92,5,2.76a57.14,57.14,0,0,1,12.45,9.77,47.82,47.82,0,0,1,9,12,30.22,30.22,0,0,0,1.73,2.94,1.88,1.88,0,0,1,.7,1.21,9.28,9.28,0,0,0,1,2.59,60.08,60.08,0,0,1,2.77,10.2q.69,4.34.69,26.29,0,18.15-.43,22.91a40,40,0,0,1-2.51,10.29,49.38,49.38,0,0,1-11.93,17.63,38.92,38.92,0,0,1-15.22,9.17,48.16,48.16,0,0,1-11.24,2.59q-4.5.34-26.62.35-27.68,0-28-.35-.51-.35-.52-44.09V256.74a6.79,6.79,0,0,1,2.43-.86,24.6,24.6,0,0,1,4.15,1q12.27,4,15,15.91.51,3.63.52,25.59,0,23.69.86,23.86,1,.35,14.18.34a136.33,136.33,0,0,0,15.91-.6,27.86,27.86,0,0,0,8.47-2.51,22.58,22.58,0,0,0,9.51-9.16,19,19,0,0,0,2.85-7.61q.43-3.63.44-19.71,0-15.92-.52-20.06a34.09,34.09,0,0,0-2.94-9.51,39,39,0,0,0-9.08-12.19,33,33,0,0,0-12.36-7.35,39.89,39.89,0,0,1-4.5-1.56q-1.38-.51-15-.86-14-.17-15.56-.86A21.59,21.59,0,0,1,1333.1,222q-3.81-5.53-3.81-10.55A2.24,2.24,0,0,1,1330,209.56Z" transform="translate(0 -0.01)"/></svg>